<?xml version="1.0" encoding="utf-8"?>
<!-- Generator: Adobe Illustrator 22.0.1, SVG Export Plug-In . SVG Version: 6.00 Build 0)  -->
<svg version="1.1" id="Layer_1" xmlns="http://www.w3.org/2000/svg" xmlns:xlink="http://www.w3.org/1999/xlink" x="0px" y="0px"
	 viewBox="0 0 47 45" style="enable-background:new 0 0 47 45;" xml:space="preserve">
<style type="text/css">
	.st0{fill:#212737;}
	.st1{fill:#333333;}
	.st2{opacity:0.5;}
	.st3{fill:#010101;}
	.st4{fill:#818181;}
	.st5{filter:url(#Adobe_OpacityMaskFilter);}
	.st6{fill:#FFFFFF;}
	.st7{fill:#010101;stroke:#010101;stroke-width:1.5343;stroke-miterlimit:10;}
	.st8{mask:url(#SVGID_1_);fill:#010101;}
	.st9{filter:url(#Adobe_OpacityMaskFilter_1_);}
	.st10{mask:url(#SVGID_2_);fill:#818181;}
	.st11{fill:#55A4DB;}
	.st12{filter:url(#Adobe_OpacityMaskFilter_2_);}
	.st13{mask:url(#SVGID_3_);fill:#010101;}
	.st14{filter:url(#Adobe_OpacityMaskFilter_3_);}
	.st15{mask:url(#SVGID_4_);fill:#55A4DB;}
	.st16{fill:#7FC347;}
	.st17{fill:#8DC641;}
	.st18{filter:url(#Adobe_OpacityMaskFilter_4_);}
	.st19{mask:url(#SVGID_5_);fill:#010101;}
	.st20{filter:url(#Adobe_OpacityMaskFilter_5_);}
	.st21{mask:url(#SVGID_6_);fill:#7FC347;}
	.st22{filter:url(#Adobe_OpacityMaskFilter_6_);}
	.st23{mask:url(#SVGID_7_);fill:#010101;}
	.st24{filter:url(#Adobe_OpacityMaskFilter_7_);}
	.st25{mask:url(#SVGID_8_);fill:#7FC347;}
	.st26{fill:#FFFFFF;stroke:#676767;stroke-width:1.4653;stroke-miterlimit:10;}
	.st27{fill:#55A4DB;stroke:#FFFFFF;stroke-width:1.4653;stroke-miterlimit:10;}
	.st28{fill:#FFFFFF;stroke:#55A4DB;stroke-width:1.4653;stroke-miterlimit:10;}
	.st29{filter:url(#Adobe_OpacityMaskFilter_8_);}
	.st30{mask:url(#SVGID_9_);fill:#010101;}
	.st31{filter:url(#Adobe_OpacityMaskFilter_9_);}
	.st32{mask:url(#SVGID_10_);fill:#55A4DB;}
	.st33{filter:url(#Adobe_OpacityMaskFilter_10_);}
	.st34{mask:url(#SVGID_11_);fill:#010101;}
	.st35{filter:url(#Adobe_OpacityMaskFilter_11_);}
	.st36{mask:url(#SVGID_12_);fill:#818181;}
	.st37{fill:#7EC145;}
</style>
<g>
	<g class="st2">
		<defs>
			<filter id="Adobe_OpacityMaskFilter" filterUnits="userSpaceOnUse" x="3.9" y="3.9" width="40" height="40">
				<feColorMatrix  type="matrix" values="1 0 0 0 0  0 1 0 0 0  0 0 1 0 0  0 0 0 1 0"/>
			</filter>
		</defs>
		<mask maskUnits="userSpaceOnUse" x="3.9" y="3.9" width="40" height="40" id="SVGID_1_">
			<g class="st5">
				<path class="st6" d="M23.9,3.9c-11.1,0-20,8.9-20,20c0,11.1,8.9,20,20,20c11.1,0,20-8.9,20-20C43.9,12.8,35,3.9,23.9,3.9
					L23.9,3.9z M23.9,35.8"/>
				<path class="st7" d="M32.4,34.5H16c-0.3,0-0.5-0.2-0.5-0.5s0.2-0.5,0.5-0.5h16.3c0.3,0,0.5,0.2,0.5,0.5S32.7,34.5,32.4,34.5z"/>
				<path class="st7" d="M19.6,34.5h-3c-0.3,0-0.5-0.2-0.5-0.5V24c0-0.3,0.2-0.5,0.5-0.5h3c0.3,0,0.5,0.2,0.5,0.5v10
					C20.1,34.2,19.9,34.5,19.6,34.5z"/>
				<path class="st7" d="M25.5,34.5h-3c-0.3,0-0.5-0.2-0.5-0.5v-8c0-0.3,0.2-0.5,0.5-0.5h3c0.3,0,0.5,0.2,0.5,0.5v8
					C26,34.2,25.8,34.5,25.5,34.5z"/>
				<path class="st7" d="M31.4,34.5h-3c-0.3,0-0.5-0.2-0.5-0.5V20c0-0.3,0.2-0.5,0.5-0.5h3c0.3,0,0.5,0.2,0.5,0.5V34
					C31.9,34.2,31.7,34.5,31.4,34.5z"/>
				<path class="st7" d="M18.1,18.8c-1.1,0-2-0.9-2-2s0.9-2,2-2s2,0.9,2,2S19.2,18.8,18.1,18.8z"/>
				<path class="st7" d="M23.9,21.4c-1.1,0-2-0.9-2-2s0.9-2,2-2s2,0.9,2,2C25.9,20.5,25,21.4,23.9,21.4z"/>
				<path class="st7" d="M29.9,14.2c-1.1,0-2-0.9-2-2s0.9-2,2-2c1.1,0,2,0.9,2,2S31,14.2,29.9,14.2z"/>
				<path class="st7" d="M25.4,18.8c-0.1,0-0.3,0-0.4-0.1c-0.3-0.2-0.3-0.5-0.1-0.8l3.6-4.5c0.2-0.3,0.6-0.3,0.8-0.1
					c0.3,0.2,0.3,0.5,0.1,0.8l-3.6,4.5C25.7,18.7,25.5,18.7,25.4,18.8z"/>
				<path class="st7" d="M22.8,18.8c0,0.1,0,0.3-0.1,0.4c-0.2,0.3-0.5,0.3-0.8,0.2L19.3,18c-0.3-0.2-0.3-0.5-0.2-0.8
					c0.2-0.3,0.5-0.3,0.8-0.2l2.7,1.3C22.7,18.5,22.8,18.6,22.8,18.8z"/>
			</g>
		</mask>
		<path class="st8" d="M23.9,3.9c-11.1,0-20,8.9-20,20c0,11.1,8.9,20,20,20c11.1,0,20-8.9,20-20C43.9,12.8,35,3.9,23.9,3.9L23.9,3.9
			z M23.9,35.8"/>
		<circle class="st3" cx="23.7" cy="19.5" r="1.8"/>
		<circle class="st3" cx="30" cy="12.2" r="1.8"/>
		<circle class="st3" cx="18.1" cy="16.9" r="1.8"/>
	</g>
	<g>
		<g>
			<defs>
				<filter id="Adobe_OpacityMaskFilter_1_" filterUnits="userSpaceOnUse" x="2" y="2" width="40" height="40">
					<feColorMatrix  type="matrix" values="1 0 0 0 0  0 1 0 0 0  0 0 1 0 0  0 0 0 1 0"/>
				</filter>
			</defs>
			<mask maskUnits="userSpaceOnUse" x="2" y="2" width="40" height="40" id="SVGID_2_">
				<g class="st9">
					<path class="st6" d="M22,2C10.9,2,2,10.9,2,22c0,11.1,8.9,20,20,20c11.1,0,20-8.9,20-20C42,10.9,33.1,2,22,2L22,2z M22,33.8"/>
					<path class="st7" d="M30.5,32.5H14.1c-0.3,0-0.5-0.2-0.5-0.5s0.2-0.5,0.5-0.5h16.3c0.3,0,0.5,0.2,0.5,0.5S30.7,32.5,30.5,32.5z
						"/>
					<path class="st7" d="M17.7,32.5h-3c-0.3,0-0.5-0.2-0.5-0.5V22c0-0.3,0.2-0.5,0.5-0.5h3c0.3,0,0.5,0.2,0.5,0.5v10
						C18.2,32.3,17.9,32.5,17.7,32.5z"/>
					<path class="st7" d="M23.6,32.5h-3c-0.3,0-0.5-0.2-0.5-0.5v-8c0-0.3,0.2-0.5,0.5-0.5h3c0.3,0,0.5,0.2,0.5,0.5v8
						C24.1,32.3,23.8,32.5,23.6,32.5z"/>
					<path class="st7" d="M29.5,32.5h-3c-0.3,0-0.5-0.2-0.5-0.5V18.1c0-0.3,0.2-0.5,0.5-0.5h3c0.3,0,0.5,0.2,0.5,0.5V32
						C30,32.3,29.7,32.5,29.5,32.5z"/>
					<path class="st7" d="M16.2,16.9c-1.1,0-2-0.9-2-2s0.9-2,2-2s2,0.9,2,2S17.3,16.9,16.2,16.9z"/>
					<path class="st7" d="M22,19.5c-1.1,0-2-0.9-2-2s0.9-2,2-2c1.1,0,2,0.9,2,2S23,19.5,22,19.5z"/>
					<path class="st7" d="M28,12.3c-1.1,0-2-0.9-2-2s0.9-2,2-2c1.1,0,2,0.9,2,2S29.1,12.3,28,12.3z"/>
					<path class="st7" d="M23.5,16.8c-0.1,0-0.3,0-0.4-0.1c-0.3-0.2-0.3-0.5-0.1-0.8l3.6-4.5c0.2-0.3,0.6-0.3,0.8-0.1
						c0.3,0.2,0.3,0.5,0.1,0.8l-3.6,4.5C23.7,16.7,23.6,16.8,23.5,16.8z"/>
					<path class="st7" d="M20.9,16.8c0,0.1,0,0.3-0.1,0.4c-0.2,0.3-0.5,0.3-0.8,0.2l-2.7-1.3c-0.3-0.2-0.3-0.5-0.2-0.8
						c0.2-0.3,0.5-0.3,0.8-0.2l2.7,1.3C20.8,16.5,20.9,16.7,20.9,16.8z"/>
				</g>
			</mask>
			<path style="mask:url(#SVGID_2_);fill:#7FC347;" d="M22,2C10.9,2,2,10.9,2,22c0,11.1,8.9,20,20,20c11.1,0,20-8.9,20-20
				C42,10.9,33.1,2,22,2L22,2z M22,33.8"/>
			<circle class="st6" cx="21.8" cy="17.5" r="1.8"/>
			<circle class="st6" cx="28.1" cy="10.3" r="1.8"/>
			<circle class="st6" cx="16.1" cy="15" r="1.8"/>
		</g>
	</g>
</g>
</svg>
