<?xml version="1.0" encoding="utf-8"?>
<!-- Generator: Adobe Illustrator 22.0.1, SVG Export Plug-In . SVG Version: 6.00 Build 0)  -->
<svg version="1.1" id="Layer_1" xmlns="http://www.w3.org/2000/svg" xmlns:xlink="http://www.w3.org/1999/xlink" x="0px" y="0px"
	 viewBox="0 0 47 45" style="enable-background:new 0 0 47 45;" xml:space="preserve">
<style type="text/css">
	.st0{fill:#212737;}
	.st1{fill:#333333;}
	.st2{opacity:0.5;}
	.st3{fill:#010101;}
	.st4{fill:#818181;}
	.st5{filter:url(#Adobe_OpacityMaskFilter);}
	.st6{fill:#FFFFFF;}
	.st7{fill:#010101;stroke:#010101;stroke-width:1.5343;stroke-miterlimit:10;}
	.st8{mask:url(#SVGID_1_);fill:#010101;}
	.st9{filter:url(#Adobe_OpacityMaskFilter_1_);}
	.st10{mask:url(#SVGID_2_);fill:#818181;}
	.st11{fill:#55A4DB;}
	.st12{filter:url(#Adobe_OpacityMaskFilter_2_);}
	.st13{mask:url(#SVGID_3_);fill:#010101;}
	.st14{filter:url(#Adobe_OpacityMaskFilter_3_);}
	.st15{mask:url(#SVGID_4_);fill:#55A4DB;}
	.st16{fill:#7FC347;}
	.st17{fill:#8DC641;}
	.st18{filter:url(#Adobe_OpacityMaskFilter_4_);}
	.st19{mask:url(#SVGID_5_);fill:#010101;}
	.st20{filter:url(#Adobe_OpacityMaskFilter_5_);}
	.st21{mask:url(#SVGID_6_);fill:#7FC347;}
	.st22{filter:url(#Adobe_OpacityMaskFilter_6_);}
	.st23{mask:url(#SVGID_7_);fill:#010101;}
	.st24{filter:url(#Adobe_OpacityMaskFilter_7_);}
	.st25{mask:url(#SVGID_8_);fill:#7FC347;}
	.st26{fill:#FFFFFF;stroke:#676767;stroke-width:1.4653;stroke-miterlimit:10;}
	.st27{fill:#55A4DB;stroke:#FFFFFF;stroke-width:1.4653;stroke-miterlimit:10;}
	.st28{fill:#FFFFFF;stroke:#55A4DB;stroke-width:1.4653;stroke-miterlimit:10;}
	.st29{filter:url(#Adobe_OpacityMaskFilter_8_);}
	.st30{mask:url(#SVGID_9_);fill:#010101;}
	.st31{filter:url(#Adobe_OpacityMaskFilter_9_);}
	.st32{mask:url(#SVGID_10_);fill:#55A4DB;}
	.st33{filter:url(#Adobe_OpacityMaskFilter_10_);}
	.st34{mask:url(#SVGID_11_);fill:#010101;}
	.st35{filter:url(#Adobe_OpacityMaskFilter_11_);}
	.st36{mask:url(#SVGID_12_);fill:#818181;}
	.st37{fill:#7EC145;}
</style>
<g>
	<g class="st2">
		<path class="st3" d="M23.9,4.2C13,4.2,4.2,13,4.2,23.9c0,10.9,8.8,19.7,19.7,19.7c10.9,0,19.7-8.8,19.7-19.7
			C43.6,13,34.9,4.2,23.9,4.2L23.9,4.2z M34.7,22.1h-1.3c-0.3,0-0.4,0.2-0.4,0.4v11.2c0,0.5-0.4,0.9-0.9,0.9H15.9
			c-0.5,0-0.9-0.4-0.9-0.9V22.6c0-0.3-0.2-0.4-0.5-0.4h-1.3c-0.5,0-0.9-0.4-0.9-0.9c0-0.3,0.2-0.6,0.4-0.7l10.7-7.2
			c0.2-0.1,0.3-0.2,0.5-0.2c0.3,0,0.4,0.1,0.5,0.2l10.7,7.2c0.3,0.2,0.4,0.4,0.4,0.7C35.6,21.8,35.2,22.1,34.7,22.1L34.7,22.1z
			 M34.7,22.1"/>
		<path class="st3" d="M24.2,17.5c-0.2-0.1-0.4-0.1-0.5,0l-4.9,3.3c-0.1,0.1-0.2,0.2-0.2,0.4v9.5c0,0.3,0.2,0.4,0.4,0.4h2.7
			c0.3,0,0.4-0.2,0.4-0.4v-4c0-0.5,0.4-0.9,0.9-0.9h1.8c0.5,0,0.9,0.4,0.9,0.9v4c0,0.3,0.2,0.4,0.5,0.4h2.7c0.3,0,0.4-0.2,0.4-0.4
			v-9.5c0-0.2-0.1-0.3-0.2-0.4L24.2,17.5z M24.2,17.5"/>
	</g>
	<g>
		<g>
			<g>
				<path class="st17" d="M22,2.3C11.1,2.3,2.3,11.1,2.3,22c0,10.9,8.8,19.7,19.7,19.7c10.9,0,19.7-8.8,19.7-19.7
					C41.7,11.1,32.9,2.3,22,2.3L22,2.3z M32.7,20.2h-1.3c-0.3,0-0.4,0.2-0.4,0.4v11.2c0,0.5-0.4,0.9-0.9,0.9H13.9
					c-0.5,0-0.9-0.4-0.9-0.9V20.7c0-0.3-0.2-0.4-0.5-0.4h-1.3c-0.5,0-0.9-0.4-0.9-0.9c0-0.3,0.2-0.6,0.4-0.7l10.7-7.2
					c0.2-0.1,0.3-0.2,0.5-0.2c0.3,0,0.4,0.1,0.5,0.2l10.7,7.2c0.3,0.2,0.4,0.4,0.4,0.7C33.6,19.9,33.3,20.2,32.7,20.2L32.7,20.2z
					 M32.7,20.2"/>
				<path class="st6" d="M22.3,15.6c-0.2-0.1-0.4-0.1-0.5,0l-4.9,3.3c-0.1,0.1-0.2,0.2-0.2,0.4v9.5c0,0.3,0.2,0.4,0.4,0.4h2.7
					c0.3,0,0.4-0.2,0.4-0.4v-4c0-0.5,0.4-0.9,0.9-0.9h1.8c0.5,0,0.9,0.4,0.9,0.9v4c0,0.3,0.2,0.4,0.5,0.4h2.7c0.3,0,0.4-0.2,0.4-0.4
					v-9.5c0-0.2-0.1-0.3-0.2-0.4L22.3,15.6z M22.3,15.6"/>
			</g>
		</g>
	</g>
</g>
</svg>
