<?xml version="1.0" encoding="utf-8"?>
<!-- Generator: Adobe Illustrator 22.0.1, SVG Export Plug-In . SVG Version: 6.00 Build 0)  -->
<svg version="1.1" id="Layer_1" xmlns="http://www.w3.org/2000/svg" xmlns:xlink="http://www.w3.org/1999/xlink" x="0px" y="0px"
	 viewBox="0 0 47 45" style="enable-background:new 0 0 47 45;" xml:space="preserve">
<style type="text/css">
	.Graphic_x0020_Style_x0020_4{fill:none;}
	.st0{fill:#212737;}
	.st1{fill:#333333;}
	.st2{opacity:0.5;}
	.st3{fill:#010101;}
	.st4{fill:#818181;}
	.st5{filter:url(#Adobe_OpacityMaskFilter);}
	.st6{fill:#FFFFFF;}
	.st7{fill:#010101;stroke:#010101;stroke-width:1.5343;stroke-miterlimit:10;}
	.st8{mask:url(#SVGID_1_);fill:#010101;}
	.st9{filter:url(#Adobe_OpacityMaskFilter_1_);}
	.st10{mask:url(#SVGID_2_);fill:#818181;}
	.st11{fill:#55A4DB;}
	.st12{filter:url(#Adobe_OpacityMaskFilter_2_);}
	.st13{mask:url(#SVGID_3_);fill:#010101;}
	.st14{filter:url(#Adobe_OpacityMaskFilter_3_);}
	.st15{mask:url(#SVGID_4_);fill:#55A4DB;}
	.st16{fill:#7FC347;}
	.st17{fill:#8DC641;}
	.st18{filter:url(#Adobe_OpacityMaskFilter_4_);}
	.st19{mask:url(#SVGID_5_);fill:#010101;}
	.st20{filter:url(#Adobe_OpacityMaskFilter_5_);}
	.st21{mask:url(#SVGID_6_);fill:#7FC347;}
	.st22{filter:url(#Adobe_OpacityMaskFilter_6_);}
	.st23{mask:url(#SVGID_7_);fill:#010101;}
	.st24{filter:url(#Adobe_OpacityMaskFilter_7_);}
	.st25{mask:url(#SVGID_8_);fill:#7FC347;}
	.st26{fill:#FFFFFF;stroke:#676767;stroke-width:1.4653;stroke-miterlimit:10;}
	.st27{fill:#55A4DB;stroke:#FFFFFF;stroke-width:1.4653;stroke-miterlimit:10;}
	.st28{fill:#FFFFFF;stroke:#55A4DB;stroke-width:1.4653;stroke-miterlimit:10;}
	.st29{filter:url(#Adobe_OpacityMaskFilter_8_);}
	.st30{mask:url(#SVGID_9_);fill:#010101;}
	.st31{filter:url(#Adobe_OpacityMaskFilter_9_);}
	.st32{mask:url(#SVGID_10_);fill:#55A4DB;}
	.st33{filter:url(#Adobe_OpacityMaskFilter_10_);}
	.st34{mask:url(#SVGID_11_);fill:#010101;}
	.st35{filter:url(#Adobe_OpacityMaskFilter_11_);}
	.st36{mask:url(#SVGID_12_);fill:#818181;}
	.st37{fill:#7EC145;}
</style>
<g>
	<g class="st2">
		<path class="st3" d="M26.7,18.5c0,1.5-1.2,2.7-2.7,2.7c-1.5,0-2.7-1.2-2.7-2.7c0-1.5,1.2-2.7,2.7-2.7C25.4,15.7,26.7,17,26.7,18.5
			L26.7,18.5z M26.7,18.5"/>
		<path class="st3" d="M23.9,3.9c-11.1,0-20,8.9-20,20c0,11.1,8.9,20,20,20c11.1,0,20-8.9,20-20C43.9,12.8,35,3.9,23.9,3.9L23.9,3.9
			z M33,35.8h-1.8c-0.5,0-0.9-0.4-0.9-0.9c0-6.3-0.9-8.2-6.4-8.2c-5.5,0-6.4,1.9-6.4,8.2c0,0.5-0.4,0.9-0.9,0.9h-1.8
			c-0.5,0-0.9-0.4-0.9-0.9c0-4.7,0.5-9.4,5.4-11.1c0.3-0.1,0.4-0.4,0.3-0.5c0-0.1-0.1-0.1-0.1-0.2c-1.2-1.2-1.9-2.7-1.9-4.5
			c0-3.5,2.8-6.4,6.4-6.4c3.5,0,6.4,2.8,6.4,6.4c0,1.7-0.7,3.4-1.9,4.5c-0.1,0.1-0.1,0.1-0.1,0.2c-0.1,0.3,0,0.5,0.3,0.5
			c4.8,1.7,5.4,6.4,5.4,11.1C33.9,35.4,33.6,35.8,33,35.8L33,35.8z M33,35.8"/>
	</g>
	<g>
		<g>
			<path class="st4" d="M24.7,16.5c0,1.5-1.2,2.7-2.7,2.7c-1.5,0-2.7-1.2-2.7-2.7c0-1.5,1.2-2.7,2.7-2.7
				C23.5,13.8,24.7,15,24.7,16.5L24.7,16.5z M24.7,16.5"/>
			<path class="st4" d="M22,2C10.9,2,2,10.9,2,22c0,11.1,8.9,20,20,20c11.1,0,20-8.9,20-20C42,10.9,33.1,2,22,2L22,2z M31.1,33.8
				h-1.8c-0.5,0-0.9-0.4-0.9-0.9c0-6.3-0.9-8.2-6.4-8.2c-5.5,0-6.4,1.9-6.4,8.2c0,0.5-0.4,0.9-0.9,0.9h-1.8c-0.5,0-0.9-0.4-0.9-0.9
				c0-4.7,0.5-9.4,5.4-11.1c0.3-0.1,0.4-0.4,0.3-0.5c0-0.1-0.1-0.1-0.1-0.2c-1.2-1.2-1.9-2.7-1.9-4.5c0-3.5,2.8-6.4,6.4-6.4
				c3.5,0,6.4,2.8,6.4,6.4c0,1.7-0.7,3.4-1.9,4.5c-0.1,0.1-0.1,0.1-0.1,0.2c-0.1,0.3,0,0.5,0.3,0.5c4.8,1.7,5.4,6.4,5.4,11.1
				C32,33.5,31.6,33.8,31.1,33.8L31.1,33.8z M31.1,33.8"/>
		</g>
	</g>
</g>
</svg>
