<?xml version="1.0" encoding="utf-8"?>
<!-- Generator: Adobe Illustrator 22.0.1, SVG Export Plug-In . SVG Version: 6.00 Build 0)  -->
<svg version="1.1" id="Layer_1" xmlns="http://www.w3.org/2000/svg" xmlns:xlink="http://www.w3.org/1999/xlink" x="0px" y="0px"
	 viewBox="0 0 108.7 100" style="enable-background:new 0 0 108.7 100;" xml:space="preserve">
<style type="text/css">
	.st0{fill:#212737;}
	.st1{fill:#333333;}
	.st2{opacity:0.5;}
	.st3{fill:#010101;}
	.st4{fill:#818181;}
	.st5{filter:url(#Adobe_OpacityMaskFilter);}
	.st6{fill:#FFFFFF;}
	.st7{fill:#010101;stroke:#010101;stroke-width:1.5343;stroke-miterlimit:10;}
	.st8{mask:url(#SVGID_1_);fill:#010101;}
	.st9{filter:url(#Adobe_OpacityMaskFilter_1_);}
	.st10{mask:url(#SVGID_2_);fill:#818181;}
	.st11{fill:#55A4DB;}
	.st12{filter:url(#Adobe_OpacityMaskFilter_2_);}
	.st13{mask:url(#SVGID_3_);fill:#010101;}
	.st14{filter:url(#Adobe_OpacityMaskFilter_3_);}
	.st15{mask:url(#SVGID_4_);fill:#55A4DB;}
	.st16{fill:#7FC347;}
	.st17{fill:#8DC641;}
	.st18{filter:url(#Adobe_OpacityMaskFilter_4_);}
	.st19{mask:url(#SVGID_5_);fill:#010101;}
	.st20{filter:url(#Adobe_OpacityMaskFilter_5_);}
	.st21{mask:url(#SVGID_6_);fill:#7FC347;}
	.st22{filter:url(#Adobe_OpacityMaskFilter_6_);}
	.st23{mask:url(#SVGID_7_);fill:#010101;}
	.st24{filter:url(#Adobe_OpacityMaskFilter_7_);}
	.st25{mask:url(#SVGID_8_);fill:#7FC347;}
	.st26{fill:#FFFFFF;stroke:#676767;stroke-width:1.4653;stroke-miterlimit:10;}
	.st27{fill:#55A4DB;stroke:#FFFFFF;stroke-width:1.4653;stroke-miterlimit:10;}
	.st28{fill:#FFFFFF;stroke:#55A4DB;stroke-width:1.4653;stroke-miterlimit:10;}
	.st29{filter:url(#Adobe_OpacityMaskFilter_8_);}
	.st30{mask:url(#SVGID_9_);fill:#010101;}
	.st31{filter:url(#Adobe_OpacityMaskFilter_9_);}
	.st32{mask:url(#SVGID_10_);fill:#55A4DB;}
	.st33{filter:url(#Adobe_OpacityMaskFilter_10_);}
	.st34{mask:url(#SVGID_11_);fill:#010101;}
	.st35{filter:url(#Adobe_OpacityMaskFilter_11_);}
	.st36{mask:url(#SVGID_12_);fill:#818181;}
	.st37{fill:#7EC145;}
	.st38{fill:#55A3D9;}
	.st39{font-family:'SourceSansPro-Black';}
	.st40{font-size:15.5088px;}
	.st41{fill:#F79227;}
</style>
<g>
	<g>
		<path class="st37" d="M73.7,73.5c0-8.3-9.1-18.3-15.9-24.1c0,0,0,0,0,0c0,0,0,0,0,0c-4.7-4.4-14-12.9-14-20c0-1.7,0-3.4,0-4.5
			h-4.7l11.7-13.2L62.6,25h-4.9c0,1.2,0,3.4,0,5.5c0,4,4.4,9.5,7,12.4c4.8-5.3,9.1-11.8,9.1-17.4c0-12.6-10.2-22.8-22.8-22.8
			c-12.6,0-22.8,10.2-22.8,22.8c0,8.3,9.1,18.3,15.9,24.1c4.7,4.4,14,12.9,14,20c0,1.7,0,3.4,0,4.5h4.7L50.9,87.1L39.2,73.9l4.9,0
			c0-1.2,0-3.4,0-5.5c0-4-4.4-9.5-7-12.3c-4.8,5.3-9.1,11.8-9.1,17.4c0,12.6,10.2,22.8,22.8,22.8C63.5,96.3,73.7,86.1,73.7,73.5z"/>
	</g>
	<text transform="matrix(1 0 0 1 3.2639 52.8453)" class="st38 st39 st40">up &amp;</text>
	<text transform="matrix(1 0 0 1 66.6282 52.8453)" class="st41 st39 st40">down</text>
</g>
</svg>
