<?xml version="1.0" encoding="utf-8"?>
<!-- Generator: Adobe Illustrator 22.0.1, SVG Export Plug-In . SVG Version: 6.00 Build 0)  -->
<svg version="1.1" id="Layer_1" xmlns="http://www.w3.org/2000/svg" xmlns:xlink="http://www.w3.org/1999/xlink" x="0px" y="0px"
	 viewBox="0 0 47 45" style="enable-background:new 0 0 47 45;" xml:space="preserve">
<style type="text/css">
	.st0{opacity:0.5;}
	.st1{fill:#010101;}
	.st2{fill:#8DC641;}
	.st3{fill:#FFFFFF;}
	.st4{filter:url(#Adobe_OpacityMaskFilter);}
	.st5{fill:#010101;stroke:#010101;stroke-width:1.5343;stroke-miterlimit:10;}
	.st6{mask:url(#SVGID_1_);fill:#010101;}
	.st7{filter:url(#Adobe_OpacityMaskFilter_1_);}
	.st8{mask:url(#SVGID_2_);fill:#7FC347;}
	.st9{fill:#808285;}
	.st10{filter:url(#Adobe_OpacityMaskFilter_2_);}
	.st11{mask:url(#SVGID_3_);fill:#010101;}
	.st12{filter:url(#Adobe_OpacityMaskFilter_3_);}
	.st13{mask:url(#SVGID_4_);fill:#55A4DB;}
	.st14{fill:#55A4DB;}
	.st15{filter:url(#Adobe_OpacityMaskFilter_4_);}
	.st16{mask:url(#SVGID_5_);fill:#010101;}
	.st17{filter:url(#Adobe_OpacityMaskFilter_5_);}
	.st18{mask:url(#SVGID_6_);fill:#818181;}
	.st19{fill:#818181;}
	.st20{fill:#7EC145;}
</style>
<g>
	<g>
		<g class="st0">
			<path class="st1" d="M43.8,24c0-10.9-8.9-19.9-19.9-19.9C13,4.1,4.1,13,4.1,24c0,11,8.9,19.9,19.9,19.9
				C34.9,43.8,43.8,34.9,43.8,24L43.8,24z M25.9,23.9c0,1-0.8,1.9-1.9,1.9c-1,0-1.9-0.8-1.9-1.9v-9.8c0-1,0.8-1.9,1.9-1.9
				c1,0,1.9,0.8,1.9,1.9V23.9z M36.8,24c0,7.1-5.8,12.8-12.8,12.8c-7.1,0-12.8-5.8-12.8-12.8c0-3.4,1.3-6.7,3.8-9.1
				c0.4-0.4,0.8-0.6,1.3-0.6c0.5,0,1,0.2,1.3,0.6c0.7,0.7,0.7,1.9,0,2.7c-1.7,1.7-2.7,4-2.7,6.4c0,5,4.1,9.1,9.1,9.1
				c5,0,9.1-4.1,9.1-9.1c0-2.4-0.9-4.7-2.6-6.4c-0.7-0.7-0.7-1.9,0-2.7c0.7-0.7,1.9-0.7,2.7,0C35.4,17.3,36.8,20.6,36.8,24L36.8,24z
				 M36.8,24"/>
			<path class="st1" d="M25.1,23.3c0,0.7-0.5,1.3-1.1,1.3c-0.6,0-1.1-0.6-1.1-1.3v-8.2c0-0.7,0.5-1.3,1.1-1.3c0.6,0,1.1,0.6,1.1,1.3
				V23.3z"/>
		</g>
		<g>
			<g>
				<g>
					<path class="st9" d="M41.9,22C41.9,11.1,33,2.2,22,2.2C11,2.2,2.1,11.1,2.1,22C2.1,33,11,41.9,22,41.9C33,41.9,41.9,33,41.9,22
						L41.9,22z M23.9,22c0,1-0.8,1.9-1.9,1.9c-1,0-1.9-0.8-1.9-1.9v-9.8c0-1,0.8-1.9,1.9-1.9c1,0,1.9,0.8,1.9,1.9V22z M34.8,22.1
						c0,7.1-5.8,12.8-12.8,12.8c-7.1,0-12.8-5.8-12.8-12.8c0-3.4,1.3-6.7,3.8-9.1c0.4-0.4,0.8-0.6,1.3-0.6c0.5,0,1,0.2,1.3,0.6
						c0.7,0.7,0.7,1.9,0,2.7c-1.7,1.7-2.7,4-2.7,6.4c0,5,4.1,9.1,9.1,9.1c5,0,9.1-4.1,9.1-9.1c0-2.4-0.9-4.7-2.6-6.4
						c-0.7-0.7-0.7-1.9,0-2.7c0.7-0.7,1.9-0.7,2.7,0C33.5,15.4,34.8,18.6,34.8,22.1L34.8,22.1z M34.8,22.1"/>
				</g>
				<path class="st3" d="M23.2,21.4c0,0.7-0.5,1.3-1.1,1.3c-0.6,0-1.1-0.6-1.1-1.3v-8.2c0-0.7,0.5-1.3,1.1-1.3
					c0.6,0,1.1,0.6,1.1,1.3V21.4z"/>
			</g>
		</g>
	</g>
</g>
</svg>
